PathFileType	4	(X/Y/Z)	C:/Users/beibeiliu/ov580/test_trc/capture2\sequence.30_training_dense_right.trc
DataRate	CameraRate	NumFrames	NumMarkers	Units	OrigDataRate	OrigDataStartFrame	OrigNumFrames
120	120	23	19	mm	120	351	400
Frame#	Time	ThumbCMC			ThumbMCP			ThumbIP			ThumbTip			IndexMCP			IndexPIP			IndexTip			MiddleMCP			MiddlePIP			MiddleTip			RingMCP			RingPIP			RingTip			PinkyMCP			PinkyPIP			PinkyTip			BackHand1			BackHand2			BackHand3	
		X0	Y0	Z0	X1	Y1	Z1	X2	Y2	Z2	X3	Y3	Z3	X4	Y4	Z4	X5	Y5	Z5	X6	Y6	Z6	X7	Y7	Z7	X8	Y8	Z8	X9	Y9	Z9	X10	Y10	Z10	X11	Y11	Z11	X12	Y12	Z12	X13	Y13	Z13	X14	Y14	Z14	X15	Y15	Z15	X16	Y16	Z16	X17	Y17	Z17	X18	Y18	Z18	
350	2.91667	88.4881	17.9048	31.1368	90.7515	8.35923	-1.03583	107.496	13.0087	-23.6132	133.221	20.9579	-31.9899	89.2171	54.762	-28.7106	83.6818	58.1395	-51.9967	84.4546	65.0161	-78.3972	117.732	61.6841	-34.084	117.633	68.0881	-56.5542	124.773	80.8592	-79.9535	139.358	56.395	-27.6945	148.613	66.554	-51.2708	149.134	76.7589	-72.6281	163.253	43.7019	-19.6691	176.921	44.3766	-31.5099	189.019	59.6953	-44.9321	140.012	52.3461	19.4564	141.944	46.9978	51.0165	109.468	52.5052	33.6484	
351	2.925	90.1621	16.9792	33.0373	91.0575	6.67405	1.66266	104.529	11.2996	-25.3373	133.865	20.704	-25.7152	92.8705	54.526	-27.3928	86.5363	58.7114	-56.4176	83.6688	63.3703	-76.0276	118.992	61.0694	-30.1649	117.565	67.305	-54.1954	121.363	79.5509	-78.8641	140.225	56.5192	-27.1693	147.05	65.4084	-50.4087	154.061	74.5283	-69.2481	161.7	42.3098	-16.1586	175.343	45.9257	-34.1245	190.91	60.4369	-45.5047	137.223	50.7198	17.9945	139.422	48.1921	51.4449	108.941	51.999	31.2583	
352	2.93333	87.9355	18.0498	31.8559	88.9553	6.03556	1.52066	105.997	13.0999	-24.9247	128.364	17.7995	-28.0333	90.2834	54.2574	-26.2304	87.5396	58.4328	-50.8691	85.6849	65.0556	-74.7092	118.478	61.9163	-34.1963	117.692	67.9056	-55.481	119.741	81.55	-81.2384	141.34	55.4852	-25.854	146.32	63.1078	-46.6749	149.923	77.1331	-71.3742	163.08	41.8393	-14.8181	173.708	45.934	-33.0356	187.295	59.4447	-45.785	142.148	50.8137	22.1896	141.306	45.585	52.0266	105.954	51.1546	31.7208	
353	2.94167	87.463	15.9081	35.8002	89.1337	9.47635	-0.155154	105.108	13.5936	-23.4649	129.552	19.0355	-30.7309	94.446	53.9241	-27.7405	85.5557	57.1037	-50.9944	88.1172	65.059	-76.3662	119.84	59.9575	-31.4504	123.53	66.9262	-53.4242	126.045	79.698	-80.4137	143.532	56.4965	-27.7741	146.89	64.5337	-50.9771	152.17	73.5521	-68.9562	164.854	41.516	-15.4534	172.2	43.6771	-31.3343	187.156	57.1303	-45.4287	139.802	50.1741	23.4706	137.476	48.5546	47.772	109.348	49.4093	36.3858	
354	2.95	85.3686	16.855	35.0392	84.2666	8.03461	3.23303	99.1645	12.5663	-21.7035	122.187	17.2957	-34.0203	91.6287	53.2878	-30.7484	88.8801	55.7606	-54.9667	88.2181	63.5971	-74.8035	118.564	60.9318	-35.304	123.116	65.966	-55.3354	124.714	79.8078	-83.2065	141.741	54.6664	-26.0938	150.828	63.3305	-49.2139	155.067	75.3535	-70.9705	165.917	43.2621	-18.1608	176.658	43.9623	-29.7849	189.685	55.805	-43.7224	141.217	49.8178	22.0533	135.409	47.1068	48.2722	109.337	49.62	35.7497	
355	2.95833	85.1428	17.1622	36.9468	82.4763	11.295	0.762759	92.0045	13.0104	-21.3557	118.881	17.4205	-34.5968	96.9381	51.1485	-31.7941	88.303	54.3836	-57.5355	91.2868	61.818	-79.973	121.993	57.6708	-32.6737	124.356	64.0306	-56.3896	124.648	75.2466	-82.4691	143.549	55.2238	-30.1104	148.081	62.9893	-51.4201	155.889	73.9137	-73.239	165.759	43.8334	-18.7396	176.994	43.0144	-29.1542	190.645	56.1713	-41.3043	139.494	51.6243	18.5161	136.799	48.3302	48.4875	107.061	49.5952	32.2474	
356	2.96667	84.3374	19.5354	34.6069	81.1623	13.399	2.74852	91.3755	14.8325	-20.9856	110.953	16.9046	-37.7643	98.0893	50.5807	-34.1139	96.8226	50.2044	-55.351	96.6995	56.7893	-79.0968	122.938	58.2836	-38.1414	124.58	61.7173	-60.7198	128.079	71.0775	-86.3452	143.487	54.4052	-29.6507	152.039	60.2792	-51.8506	158.885	69.1153	-70.4925	168.412	41.627	-13.8215	179.052	43.7154	-30.1901	195.748	57.673	-45.2398	140.484	52.6817	21.5031	139.367	50.3824	49.1667	104.285	49.3695	29.8615	
357	2.975	85.8393	21.4675	32.0866	79.0958	13.4279	7.0253	88.2591	17.1794	-24.3044	112.968	17.6799	-35.0266	98.7846	48.4143	-34.0577	98.232	48.9813	-61.3169	103.911	54.4238	-79.7624	120.791	54.3594	-35.5434	127.333	58.9715	-61.0516	133.244	67.5759	-85.2904	148.628	52.4383	-26.7788	152.443	57.986	-51.9491	159.11	67.4424	-74.5862	165.912	42.1738	-13.6015	178.308	43.4076	-30.2741	192.625	55.9709	-41.8221	139.83	54.4603	19.0872	135.714	50.1075	51.1502	109.868	52.5607	30.3311	
358	2.98333	83.7473	21.7322	33.6917	76.9096	14.7145	4.84304	85.6764	16.0735	-22.4147	106.373	16.7661	-38.7654	99.4744	47.6289	-34.0505	105.02	48.3556	-56.8974	109.229	51.6212	-83.2811	121.042	54.1432	-35.248	128.728	56.2738	-58.4841	129.52	62.9577	-85.8579	143.257	52.326	-27.7028	152.81	56.5627	-52.5144	159.065	64.3706	-76.0539	169.636	42.5655	-11.3711	180.249	44.5978	-30.1019	194.596	55.7229	-44.8395	140.657	55.0285	18.3689	137.407	49.4118	50.4803	106.127	50.8584	31.6843	
359	2.99167	84.1501	20.3782	37.3936	79.8317	15.7691	6.85721	83.2869	15.2301	-21.0373	105.616	16.7292	-39.7148	100.341	47.9402	-33.1033	103.153	48.404	-61.9973	114.123	51.3492	-80.8114	124.943	54.1226	-35.3982	129.202	55.8324	-58.557	129.546	63.1842	-87.2981	147.02	53.6713	-30.2977	153.31	57.4552	-52.2761	156.425	63.5011	-74.6925	168.458	43.7507	-16.7119	177.239	44.5011	-29.3566	195.774	55.8446	-39.4029	138.307	51.938	22.5957	136.146	52.5198	49.356	106.567	51.54	31.5424	
360	3	84.6835	21.1538	36.8186	80.0919	16.3987	7.42169	84.4019	17.3606	-22.5042	105.91	17.5791	-38.4662	100.807	49.0614	-37.003	106.449	47.522	-57.9135	110.49	49.519	-80.5983	124.279	54.7379	-38.2957	127.748	57.1624	-61.6185	131.186	63.4819	-88.156	147.189	55.2772	-32.3913	151.086	56.8209	-52.3818	158.169	63.0132	-73.235	168.212	44.6713	-15.5456	181.701	45.4297	-30.0559	195.878	56.1019	-42.4989	139.826	55.4201	21.3427	132.733	51.9366	48.6896	108.082	51.7779	28.7413	
361	3.00833	84.6487	21.8657	35.1951	76.9972	16.3173	5.3097	85.9804	18.8783	-22.3457	107.019	18.3535	-37.1038	101.615	48.1019	-35.2877	106.948	48.0314	-60.3511	111.065	49.8405	-85.9637	120.563	55.1342	-35.8441	125.191	55.7409	-58.5634	132.411	63.6516	-88.6746	146.071	53.9551	-27.9934	153.252	58.0266	-53.4466	155.821	63.8648	-77.4705	168.174	44.2213	-14.3704	178.666	45.9208	-33.6929	195.794	55.5059	-40.369	139.706	55.7708	24.0009	137.396	51.2172	50.3042	104.152	50.5451	28.6414	
362	3.01667	87.798	22.3235	38.3316	75.6638	16.9497	6.55198	81.6097	17.5779	-20.1603	103.833	18.6237	-36.4402	100.246	48.5691	-32.4455	106.772	48.0942	-59.9307	110.716	50.7612	-82.4784	124.974	55.5402	-36.4164	128.452	57.8614	-59.5965	134.053	63.8072	-86.2061	142.637	54.983	-31.3732	150.398	55.9851	-49.2246	160.505	64.521	-74.6889	169.148	44.6368	-14.775	180.263	44.6784	-28.6853	193.132	56.1142	-44.1965	136.263	55.7024	22.0503	133.719	50.7115	49.1419	108.03	52.8787	34.7822	
363	3.025	82.7819	20.7809	38.1259	78.9809	16.0697	9.98216	86.4123	18.6443	-22.062	107.696	20.1713	-36.8136	98.4139	49.1362	-34.7074	100.971	49.0725	-58.6087	111.612	53.0511	-83.7444	123.644	57.0933	-37.4062	123.975	58.689	-59.1221	130.856	64.2619	-85.9087	142.114	54.0983	-29.5618	151.642	58.529	-51.7559	159.752	67.116	-76.3727	169.761	44.8806	-14.1001	180.85	45.3545	-30.0403	193.778	58.2184	-45.8395	138.506	54.2589	19.7294	134.133	52.7508	50.1509	108.13	53.2351	33.9038	
364	3.03333	84.9483	22.1994	33.6197	81.9124	15.1298	7.03447	87.0806	18.1283	-23.796	108.137	18.3896	-36.0772	100.144	50.3118	-33.2948	98.743	49.9884	-55.4837	101.063	53.5198	-82.5986	123.227	58.8653	-38.1889	126.495	60.145	-62.4607	130.261	66.9017	-85.8595	141.818	56.2996	-29.4062	151.938	60.0483	-51.0244	156.695	67.8859	-74.0359	166.119	45.0604	-13.5986	181.627	45.5877	-28.6115	197.126	57.3608	-44.8096	136.643	55.359	23.8007	133.137	52.6654	51.1742	106.5	52.2454	32.9584	
365	3.04167	85.9813	20.5538	36.2334	82.5546	11.062	5.28652	91.7448	14.9886	-22.7111	109.022	17.065	-36.0774	97.1739	50.6591	-29.4789	93.8411	51.2483	-57.9898	95.0936	55.4055	-81.1593	119.321	59.596	-37.076	120.842	61.7948	-59.0883	128.26	69.2364	-83.4708	140.226	56.6432	-27.4781	146.535	60.6269	-47.8037	157.168	68.6403	-71.2518	167.988	46.6128	-12.2651	180.416	48.048	-30.4188	194.695	57.4578	-45.8663	137.773	57.4127	21.3609	132.586	53.6996	53.5873	102.602	50.9874	35.6498	
366	3.05	85.7701	18.3296	37.9065	84.2534	9.10579	2.2857	92.6016	11.3294	-24.3484	115.155	17.4959	-36.8947	93.6626	53.4942	-32.0277	92.5964	53.8945	-56.1285	90.9088	58.1278	-80.3965	118.691	60.1169	-32.6662	116.872	63.0735	-58.3331	122.005	71.1145	-83.0302	141.243	58.951	-28.7703	148.465	62.8711	-47.4391	150.237	72.0256	-74.931	161.722	47.0811	-13.1087	174.212	49.6504	-33.0037	188.224	59.0191	-47.8658	133.363	56.3924	21.3086	134.739	53.1179	51.8074	105.462	53.6692	37.5132	
367	3.05833	88.6889	19.1914	36.1805	86.609	7.46135	4.755	97.711	9.73236	-23.4617	121.484	18.7337	-32.8345	94.3903	56.1614	-26.9245	87.4346	56.9864	-52.9215	88.4886	62.4439	-74.024	116.86	62.053	-32.8564	117.836	64.552	-54.4668	121.252	75.6497	-84.9227	139.55	58.8329	-26.655	143.569	64.2721	-52.5806	145.84	69.0066	-76.35	165.656	48.5311	-14.2579	171.742	48.6185	-32.3789	184.943	57.7874	-46.2051	135.431	60.1077	21.7213	138.272	53.5975	53.1856	103.05	53.0786	34.2093	
368	3.06667	88.3347	20.2849	37.94	92.1762	10.9166	4.43058	100.906	12.7806	-21.533	127.815	22.8021	-33.3075	88.4805	59.4723	-24.569	86.9231	62.8399	-46.8503	84.9885	70.3607	-70.1785	116.06	64.134	-28.6037	119.836	67.7024	-54.8287	120.735	75.5415	-82.3628	136.58	57.862	-26.166	143.381	59.1142	-54.1457	145.271	62.468	-78.2111	163.001	48.6806	-12.3328	171.006	48.4756	-29.9744	187.317	59.2336	-43.5529	136.608	59.8969	24.8896	136.353	55.2625	55.3197	108.634	56.1103	40.6048	
369	3.075	87.7594	22.4025	35.9914	90.601	10.9697	7.10877	106.546	17.4956	-21.8532	130.458	24.5593	-30.9816	92.8167	63.9024	-28.0988	88.6598	66.5695	-48.7277	88.5479	77.3353	-72.0382	118.889	66.1651	-30.2857	119.164	68.9425	-56.2835	120.376	75.8518	-80.9733	138.895	56.4757	-32.0056	140.539	54.6082	-50.4298	142.394	54.6188	-75.8031	160.18	47.8798	-14.4974	170.985	48.3195	-30.652	186.995	59.2669	-48.5913	137.162	60.7002	27.2255	137.183	54.8558	51.3233	109.125	58.639	38.7604	
370	3.08333	86.5969	24.5982	34.153	92.1646	12.3714	5.00001	106.789	17.0409	-24.1717	130.771	25.8354	-26.431	93.7331	63.4982	-27.0468	87.9347	66.412	-48.5435	84.7691	76.7367	-69.8574	120.079	66.0615	-32.9813	121.126	68.408	-56.2545	122.925	76.0842	-81.6338	139.85	55.5821	-28.6519	143.018	52.0078	-55.4758	146.541	51.9074	-79.9427	162.746	48.7025	-17.6719	168.715	47.7129	-34.7748	184.377	56.7357	-47.6251	138.005	60.1833	23.5362	137.919	55.422	51.4953	107.528	57.128	37.7211	
371	3.09167	90.6206	23.6986	37.5895	91.4376	13.1902	3.35669	105.301	15.811	-21.19	129.279	23.3418	-29.5172	87.8362	62.3416	-27.6777	87.1299	66.4402	-52.0802	84.6288	74.4686	-70.7535	118.153	64.5553	-32.135	115.338	68.0128	-59.1054	119.165	75.3735	-84.3414	138.58	53.9674	-28.0214	143.746	50.5449	-53.6988	145.442	49.9799	-79.1182	160.339	47.5678	-18.4159	168.845	45.6545	-34.4486	180.108	57.8772	-50.6983	138.061	62.3206	22.1783	137.834	55.9997	54.5314	108.67	59.1948	35.2131	
372	3.1	85.6456	21.5001	37.5775	90.1415	12.3984	4.01838	104.48	15.7675	-22.663	129.703	23.3602	-29.6685	91.2226	62.3486	-29.1949	82.7415	65.113	-50.6396	83.9715	74.3576	-72.2617	117.642	64.1041	-34.2042	115.89	65.9293	-56.1987	117.974	74.5677	-83.8526	139.92	54.4517	-28.2219	139.706	51.0199	-56.7131	148.197	48.8432	-77.2452	162.018	46.3378	-17.5996	170.942	43.939	-31.0779	182.5	54.0826	-49.6082	135.919	60.8039	24.0578	135.913	54.2218	52.8184	103.341	59.522	35.397	
